<svg xmlns="http://www.w3.org/2000/svg" viewBox="0 0 64 64">
  <defs>
    <linearGradient id="bg" x1="0%" y1="0%" x2="100%" y2="100%">
      <stop offset="0%" style="stop-color:#FF6B00"/>
      <stop offset="100%" style="stop-color:#FF8C33"/>
    </linearGradient>
  </defs>
  <!-- Rounded background -->
  <rect width="64" height="64" rx="14" fill="url(#bg)"/>
  <!-- Wrench icon -->
  <g transform="translate(32,32) rotate(-45) translate(-32,-32)">
    <path d="M44 20c0-4.4-3.6-8-8-8c-1.5 0-2.9.4-4.1 1.1L36 17.2l-2.8 2.8l-4.1-4.1C28.4 17.1 28 18.5 28 20c0 4.4 3.6 8 8 8c1.5 0 2.9-.4 4.1-1.1l-1.2-1.2l2.8-2.8l1.2 1.2C43.6 22.9 44 21.5 44 20z" fill="white" opacity="0.95"/>
    <rect x="18" y="30" width="6" height="18" rx="3" fill="white" opacity="0.95" transform="rotate(-0 21 39)"/>
  </g>
  <!-- Road/path accent -->
  <path d="M16 48 L32 38 L48 48" stroke="white" stroke-width="3" fill="none" opacity="0.5" stroke-linecap="round" stroke-linejoin="round"/>
  <!-- RB text -->
  <text x="32" y="38" text-anchor="middle" dominant-baseline="central" font-family="Arial,sans-serif" font-weight="bold" font-size="22" fill="white">RB</text>
</svg>
